<svg width="23" height="23" viewBox="0 0 23 23" fill="none" xmlns="http://www.w3.org/2000/svg">
<rect width="23" height="23" rx="3" fill="url(#paint0_radial_1575_86)"/>
<rect x="0.25" y="0.25" width="22.5" height="22.5" rx="2.75" stroke="white" stroke-opacity="0.5" stroke-width="0.5"/>
<path d="M11.693 18.23C9.91433 18.23 8.50367 17.678 7.461 16.574C6.41833 15.47 5.897 13.929 5.897 11.951C5.897 9.973 6.41833 8.432 7.461 7.328C8.50367 6.224 9.91433 5.672 11.693 5.672C13.1343 5.672 14.2997 6.03233 15.189 6.753C16.0937 7.47367 16.7223 8.43967 17.075 9.651H14.384C13.8013 8.593 12.9043 8.064 11.693 8.064C10.7577 8.064 9.99867 8.40133 9.416 9.076C8.83333 9.75067 8.542 10.709 8.542 11.951C8.542 13.193 8.83333 14.1513 9.416 14.826C9.99867 15.5007 10.7577 15.838 11.693 15.838C12.9043 15.838 13.8013 15.309 14.384 14.251H17.075C16.7223 15.4623 16.0937 16.4283 15.189 17.149C14.2843 17.8697 13.119 18.23 11.693 18.23Z" fill="white"/>
<line x1="10.5" y1="4" x2="10.5" y2="20" stroke="white"/>
<line x1="12.5" y1="4" x2="12.5" y2="20" stroke="white"/>
<defs>
<radialGradient id="paint0_radial_1575_86" cx="0" cy="0" r="1" gradientUnits="userSpaceOnUse" gradientTransform="translate(11.5 11.5) rotate(90) scale(11.5)">
<stop stop-color="#8852E0"/>
<stop offset="1" stop-color="#4A2D7A"/>
</radialGradient>
</defs>
</svg>
