<?xml version="1.0" encoding="UTF-8"?>
<svg version="1.1" xmlns="http://www.w3.org/2000/svg" width="100" height="108">
<path d="M0 0 C10.29317532 6.65573743 16.65547839 15.26604235 21.34765625 26.4921875 C21.68925781 27.2965625 22.03085938 28.1009375 22.3828125 28.9296875 C27.4474702 43.62897309 25.56813735 61.48435348 19.34765625 75.4921875 C12.83861973 88.0773555 3.57911666 96.70415603 -9.828125 101.66796875 C-23.47344238 104.60889006 -39.09675063 103.92438035 -51.3046875 96.984375 C-61.59786282 90.32863757 -67.96016589 81.71833265 -72.65234375 70.4921875 C-72.99394531 69.6878125 -73.33554688 68.8834375 -73.6875 68.0546875 C-78.7521577 53.35540191 -76.87282485 35.50002152 -70.65234375 21.4921875 C-64.14330723 8.9070195 -54.88380416 0.28021897 -41.4765625 -4.68359375 C-27.83124512 -7.62451506 -12.20793687 -6.94000535 0 0 Z " fill="#5C3898" transform="translate(75.65234375,5.5078125)"/>
<path d="M0 0 C2.0625 0.4375 2.0625 0.4375 4 1 C3.67 3.64 3.34 6.28 3 9 C3.78375 8.21625 4.5675 7.4325 5.375 6.625 C6.91666667 5.08333333 8.45833333 3.54166667 10 2 C10.99 2 11.98 2 13 2 C12.875 4.3125 12.875 4.3125 12 7 C9 8.75 9 8.75 6 10 C5.67 10.33 5.34 10.66 5 11 C5.66386719 11.15855469 6.32773437 11.31710938 7.01171875 11.48046875 C13.42168335 13.17419662 17.32504273 14.96872637 21.109375 20.671875 C22.39037147 24.02044472 22.28913923 27.28018488 22.25 30.8125 C22.26160156 31.84213867 22.26160156 31.84213867 22.2734375 32.89257812 C22.25579605 37.55432998 21.59109755 41.56725804 20 46 C11.99031479 53.03881427 -2.02498584 51.54506996 -12 51 C-20.42992963 50.10682888 -20.42992963 50.10682888 -23.734375 47.77734375 C-26.80229602 43.46899788 -25.2807664 36.50350042 -24.71875 31.4921875 C-23.6077809 25.36049267 -21.3103017 19.5007956 -16.2109375 15.6484375 C-11.35019085 12.95662959 -6.49686741 12.2544846 -1 12 C-1.01160156 11.21753906 -1.02320312 10.43507813 -1.03515625 9.62890625 C-1.04417969 8.61699219 -1.05320312 7.60507812 -1.0625 6.5625 C-1.07410156 5.55316406 -1.08570312 4.54382813 -1.09765625 3.50390625 C-1 1 -1 1 0 0 Z " fill="#64419C" transform="translate(46,24)"/>
<path d="M0 0 C2.0625 0.4375 2.0625 0.4375 4 1 C3.67 3.64 3.34 6.28 3 9 C3.78375 8.21625 4.5675 7.4325 5.375 6.625 C6.91666667 5.08333333 8.45833333 3.54166667 10 2 C10.99 2 11.98 2 13 2 C12.875 4.3125 12.875 4.3125 12 7 C9 8.75 9 8.75 6 10 C5.67 10.33 5.34 10.66 5 11 C5.66386719 11.15855469 6.32773437 11.31710938 7.01171875 11.48046875 C13.42168335 13.17419662 17.32504273 14.96872637 21.109375 20.671875 C22.39037147 24.02044472 22.28913923 27.28018488 22.25 30.8125 C22.26160156 31.84213867 22.26160156 31.84213867 22.2734375 32.89257812 C22.25579605 37.55432998 21.59109755 41.56725804 20 46 C11.99031479 53.03881427 -2.02498584 51.54506996 -12 51 C-20.42992963 50.10682888 -20.42992963 50.10682888 -23.734375 47.77734375 C-26.80229602 43.46899788 -25.2807664 36.50350042 -24.71875 31.4921875 C-23.6077809 25.36049267 -21.3103017 19.5007956 -16.2109375 15.6484375 C-11.35019085 12.95662959 -6.49686741 12.2544846 -1 12 C-1.01160156 11.21753906 -1.02320312 10.43507813 -1.03515625 9.62890625 C-1.04417969 8.61699219 -1.05320312 7.60507812 -1.0625 6.5625 C-1.07410156 5.55316406 -1.08570312 4.54382813 -1.09765625 3.50390625 C-1 1 -1 1 0 0 Z M-18.31640625 23.21484375 C-20.46001439 26.76099828 -20.70416961 29.44032983 -20.9375 33.5625 C-21.02902344 34.86316406 -21.12054687 36.16382813 -21.21484375 37.50390625 C-20.9878546 41.19763876 -20.70747504 42.53372541 -18 45 C-11.30118065 47.88187194 0.40904403 46.82885595 7.3125 44.8125 C10.01356408 43.70634995 11.00943948 42.98938058 13 40.75 C14.20314587 37.44134887 14.70232183 34.51260241 15 31 C15.07605469 30.31164063 15.15210938 29.62328125 15.23046875 28.9140625 C15.45317444 26.52492319 15.45317444 26.52492319 15 23 C11.03962436 18.58701 7.15038366 18.12274418 1.44140625 17.796875 C0.16136719 17.78140625 -1.11867188 17.7659375 -2.4375 17.75 C-3.71496094 17.72421875 -4.99242188 17.6984375 -6.30859375 17.671875 C-11.50371415 18.13366348 -14.56155974 19.62462795 -18.31640625 23.21484375 Z " fill="#F8F6FA" transform="translate(46,24)"/>
<path d="M0 0 C8.27558852 1.16239923 8.27558852 1.16239923 11 4.3125 C16.28063885 18.50421691 14.02491371 36.43256208 8 50 C2.21749801 61.18041952 -6.05403626 70.29912005 -18 75 C-20.30078125 74.37109375 -20.30078125 74.37109375 -22 73 C-22.33 72.01 -22.66 71.02 -23 70 C-22.05125 69.7525 -21.1025 69.505 -20.125 69.25 C-16.40685642 67.76274257 -16.66454929 67.36998225 -15 64 C-12.53967849 61.2442711 -9.98023198 58.60256645 -7.41015625 55.94921875 C1.18669713 45.42956834 4.26621923 28.14919965 3 15 C2.50051152 11.61255995 1.81450396 8.32341395 1 5 C0.66036279 3.33460652 0.32543613 1.66822667 0 0 Z " fill="#412762" transform="translate(87,31)"/>
<path d="M0 0 C6.36495516 4.77371637 12.07756391 10.19605715 14.75 17.8125 C13.5625 19.375 13.5625 19.375 11.75 20.8125 C9.0625 20.5 9.0625 20.5 6.75 19.8125 C6.42 20.4725 6.09 21.1325 5.75 21.8125 C5.34910156 21.11125 4.94820312 20.41 4.53515625 19.6875 C0.42486405 12.8276926 -3.96345887 7.73947493 -10.25 2.8125 C-10.84425781 2.29042969 -11.43851563 1.76835937 -12.05078125 1.23046875 C-19.96820151 -3.87436882 -33.12921316 -5.54015907 -42.25 -4.1875 C-45.04351092 -3.27772144 -47.64219146 -2.23688372 -50.2890625 -0.96484375 C-50.93617187 -0.70832031 -51.58328125 -0.45179688 -52.25 -0.1875 C-52.91 -0.5175 -53.57 -0.8475 -54.25 -1.1875 C-52.66925436 -2.00502303 -51.08528777 -2.81631997 -49.5 -3.625 C-48.61828125 -4.07746094 -47.7365625 -4.52992188 -46.828125 -4.99609375 C-32.80322304 -11.47729844 -12.48100129 -8.07042188 0 0 Z " fill="#7046B9" transform="translate(78.25,7.1875)"/>
<path d="M0 0 C0.97582031 0.10183594 1.95164063 0.20367187 2.95703125 0.30859375 C3.69308594 0.39238281 4.42914063 0.47617188 5.1875 0.5625 C5.6825 2.5425 5.6825 2.5425 6.1875 4.5625 C5.06214844 4.49289063 5.06214844 4.49289063 3.9140625 4.421875 C-6.96428369 4.03825574 -14.19698339 6.49822344 -22.21875 13.87890625 C-24.01128741 15.67741215 -24.01128741 15.67741215 -25.8125 18.5625 C-26.4725 18.5625 -27.1325 18.5625 -27.8125 18.5625 C-27.9671875 19.861875 -27.9671875 19.861875 -28.125 21.1875 C-28.8125 24.5625 -28.8125 24.5625 -30.3125 27.5 C-34.04689738 35.12439466 -34.00134321 45.92419852 -31.75 54.0625 C-30.83979552 57.46059673 -30.82036658 58.39877386 -31.8125 61.5625 C-37.7339031 50.79631254 -38.84748113 37.5771525 -35.625 25.671875 C-31.36631841 14.61568241 -23.82773871 6.53422119 -13.20703125 1.47265625 C-8.60753884 -0.27560106 -4.88061703 -0.52922353 0 0 Z " fill="#4C2E7C" transform="translate(47.8125,12.4375)"/>
<path d="M0 0 C1.485 0.99 1.485 0.99 3 2 C3.66 1.34 4.32 0.68 5 0 C5.47308594 0.73605469 5.94617188 1.47210938 6.43359375 2.23046875 C11.99821008 10.44180318 16.96604196 14.88546131 26.625 17.3125 C28.079417 17.56533325 29.53785749 17.79654789 31 18 C32.093125 18.165 33.18625 18.33 34.3125 18.5 C42.54267559 17.38404399 50.02886532 12.63940498 56 7 C54.58426179 10.39187279 52.95769034 12.09697541 50 14.25 C48.948125 15.03117187 48.948125 15.03117187 47.875 15.828125 C46 17 46 17 44 17 C44 17.66 44 18.32 44 19 C36.58569409 20.83717315 29.62314474 21.23576736 22 21 C21.67 20.01 21.34 19.02 21 18 C19.63106761 17.94729537 19.63106761 17.94729537 17 19 C10.2054927 15.46981034 3.85416043 8.86955221 0.5625 2 C0.376875 1.34 0.19125 0.68 0 0 Z " fill="#6C41B3" transform="translate(15,74)"/>
<path d="M0 0 C8.22213081 4.85334111 15.75712648 10.72766314 19 20 C17.75 21.5625 17.75 21.5625 16 23 C14.0625 23.0625 14.0625 23.0625 12 22 C11.08009888 20.67125393 10.17282368 19.33175472 9.3359375 17.94921875 C6.94729682 14.46403835 3.98290687 11.46547422 1.12109375 8.3671875 C-0.71846654 6.31419756 -2.38893209 4.23387691 -4 2 C-2.68 2 -1.36 2 0 2 C0 1.34 0 0.68 0 0 Z " fill="#8152CD" transform="translate(74,5)"/>
<path d="M0 0 C1.62109375 1.3046875 1.62109375 1.3046875 2.62109375 4.3046875 C-1.04754676 5.98626896 -3.87306672 6.54497621 -7.8984375 6.5 C-9.43081055 6.49033203 -9.43081055 6.49033203 -10.99414062 6.48046875 C-12.04923828 6.46371094 -13.10433594 6.44695312 -14.19140625 6.4296875 C-15.26583984 6.42066406 -16.34027344 6.41164063 -17.44726562 6.40234375 C-20.09137479 6.37884056 -22.73502497 6.34598325 -25.37890625 6.3046875 C-25.37890625 5.6446875 -25.37890625 4.9846875 -25.37890625 4.3046875 C-26.36890625 3.9746875 -27.35890625 3.6446875 -28.37890625 3.3046875 C-27.75886719 3.35109375 -27.13882813 3.3975 -26.5 3.4453125 C-18.92495475 3.75404797 -12.80887613 2.24529844 -5.6640625 -0.015625 C-2.37890625 -0.6953125 -2.37890625 -0.6953125 0 0 Z " fill="#59398A" transform="translate(64.37890625,101.6953125)"/>
<path d="M0 0 C2.85551535 2.85551535 2.37644521 5.79393743 2.5 9.625 C2.79097806 16.25889656 2.79097806 16.25889656 4.125 22.75 C4.99450339 25.979584 4.93865858 26.95927503 4 30 C-1.20756922 20.53169232 -1.57396953 11.58506602 -1 1 C-0.67 0.67 -0.34 0.34 0 0 Z " fill="#382158" transform="translate(12,44)"/>
<path d="M0 0 C0.66 0 1.32 0 2 0 C2.99 2.97 3.98 5.94 5 9 C2.36 8.67 -0.28 8.34 -3 8 C-3 8.99 -3 9.98 -3 11 C-3 12.66666667 -3 14.33333333 -3 16 C-6.00221784 11.49667324 -7.31896025 7.42232421 -7 2 C-4.69 2 -2.38 2 0 2 C0 1.34 0 0.68 0 0 Z " fill="#6B45A7" transform="translate(92,25)"/>
<path d="M0 0 C0.33 1.32 0.66 2.64 1 4 C0.07058594 3.90460937 -0.85882813 3.80921875 -1.81640625 3.7109375 C-11.10282999 2.81731302 -11.10282999 2.81731302 -20 5 C-20.33 4.01 -20.66 3.02 -21 2 C-13.63875604 -0.82633445 -7.77323077 -1.22657444 0 0 Z M-23 3 C-21 4 -21 4 -21 4 Z " fill="#523186" transform="translate(53,13)"/>
<path d="M0 0 C2.625 0.375 2.625 0.375 5 1 C5.6875 3.3125 5.6875 3.3125 6 6 C4.8125 7.875 4.8125 7.875 3 9 C0.86254078 8.74853421 -0.45925779 8.54074221 -2 7 C-2.1875 4.5625 -2.1875 4.5625 -2 2 C-1.34 1.34 -0.68 0.68 0 0 Z " fill="#EFECF5" transform="translate(32,50)"/>
<path d="M0 0 C2.5 0.125 2.5 0.125 3.5 1.125 C3.80392154 4.01225465 3.91849029 5.54708484 2.1875 7.9375 C0.5 9.125 0.5 9.125 -2.5 9.125 C-3.86623674 6.39252652 -3.628426 4.14301098 -3.5 1.125 C-2.5 0.125 -2.5 0.125 0 0 Z " fill="#F4F2F8" transform="translate(48.5,49.875)"/>
<path d="M0 0 C0.66 0.33 1.32 0.66 2 1 C-6.27906977 10.58139535 -6.27906977 10.58139535 -9 13 C-9.66 13 -10.32 13 -11 13 C-11.33 14.32 -11.66 15.64 -12 17 C-12.66 17 -13.32 17 -14 17 C-12.59445027 12.76815568 -10.57219402 10.07917939 -7.5625 6.8125 C-6.78003906 5.95269531 -5.99757813 5.09289062 -5.19140625 4.20703125 C-3 2 -3 2 0 0 Z " fill="#7448BA" transform="translate(22,7)"/>
<path d="M0 0 C0.99 0 1.98 0 3 0 C2.875 2.3125 2.875 2.3125 2 5 C-1 6.75 -1 6.75 -4 8 C-4.33 8.33 -4.66 8.66 -5 9 C-4.34 9.66 -3.68 10.32 -3 11 C-4.65 11 -6.3 11 -8 11 C-8.33 9.35 -8.66 7.7 -9 6 C-8.01 6 -7.02 6 -6 6 C-3.35412766 3.60414714 -3.35412766 3.60414714 -1 1 C-0.67 0.67 -0.34 0.34 0 0 Z " fill="#D3C9E3" transform="translate(56,26)"/>
<path d="M0 0 C2.64 0.33 5.28 0.66 8 1 C8.33 2.98 8.66 4.96 9 7 C8.05125 6.814375 7.1025 6.62875 6.125 6.4375 C3.10131207 5.71313368 3.10131207 5.71313368 1 7 C0.67 4.69 0.34 2.38 0 0 Z " fill="#2A1736" transform="translate(89,35)"/>
<path d="M0 0 C2 2 2 2 2.1953125 4.3828125 C2.17210937 5.28773437 2.14890625 6.19265625 2.125 7.125 C2.10695313 8.03507812 2.08890625 8.94515625 2.0703125 9.8828125 C2.03550781 10.93082031 2.03550781 10.93082031 2 12 C1.01 11.67 0.02 11.34 -1 11 C-1.02688151 9.35425434 -1.04634123 7.70838587 -1.0625 6.0625 C-1.07410156 5.14597656 -1.08570313 4.22945312 -1.09765625 3.28515625 C-1 1 -1 1 0 0 Z " fill="#39215A" transform="translate(12,44)"/>
<path d="M0 0 C1.45947705 0.06006078 2.91779272 0.1488689 4.375 0.25 C5.59316406 0.31960937 5.59316406 0.31960937 6.8359375 0.390625 C9 1 9 1 10.2890625 3.046875 C10.64097656 4.01367188 10.64097656 4.01367188 11 5 C9.741875 4.87625 8.48375 4.7525 7.1875 4.625 C6.12595703 4.52058594 6.12595703 4.52058594 5.04296875 4.4140625 C3 4 3 4 0 2 C0 1.34 0 0.68 0 0 Z " fill="#59378A" transform="translate(86,29)"/>
<path d="M0 0 C2.0625 0.4375 2.0625 0.4375 4 1 C3.67 2.32 3.34 3.64 3 5 C2.34 5 1.68 5 1 5 C0.67 5.66 0.34 6.32 0 7 C-0.38133299 5.0085944 -0.71325582 3.00720923 -1 1 C-0.67 0.67 -0.34 0.34 0 0 Z " fill="#E3DDED" transform="translate(46,24)"/>
<path d="M0 0 C1.485 0.99 1.485 0.99 3 2 C3.66 1.34 4.32 0.68 5 0 C5.66 1.32 6.32 2.64 7 4 C6.01 4.99 5.02 5.98 4 7 C0 2.25 0 2.25 0 0 Z " fill="#663DA7" transform="translate(15,74)"/>
<path d="M0 0 C0.33 0 0.66 0 1 0 C3.27678571 8.03571429 3.27678571 8.03571429 2 12 C-0.05257931 8.55166676 -1.0632763 6.68338409 -0.6875 2.625 C-0.460625 1.75875 -0.23375 0.8925 0 0 Z " fill="#45296F" transform="translate(14,62)"/>
<path d="M0 0 C1.98 0.495 1.98 0.495 4 1 C3.67 2.32 3.34 3.64 3 5 C1.68 4.67 0.36 4.34 -1 4 C-0.67 2.68 -0.34 1.36 0 0 Z " fill="#E4DEED" transform="translate(37,26)"/>
<path d="M0 0 C0.99 0 1.98 0 3 0 C2.67 1.65 2.34 3.3 2 5 C1.01 4.67 0.02 4.34 -1 4 C-0.67 2.68 -0.34 1.36 0 0 Z " fill="#E5DFEE" transform="translate(56,26)"/>
</svg>
